<?xml version="1.0"?>
<svg width="640" height="480" xmlns="http://www.w3.org/2000/svg" xmlns:svg="http://www.w3.org/2000/svg">
 <!-- Created with SVG-edit - https://github.com/SVG-Edit/svgedit-->
 <g class="layer">
  <title>Layer 1</title>
  <polygon cx="409.5" cy="90.5" fill="#007f3f" id="svg_8" orient="point" point="5" points="409.5,90.5 409.5,90.5 409.5,90.5 409.5,90.5 409.5,90.5 409.5,90.5 409.5,90.5 409.5,90.5 409.5,90.5 409.5,90.5 409.5,90.5 409.5,90.5 " r="0" r2="0" shape="star" stroke="#000000" strokeWidth="1" strokecolor="#000000"/>
  <g id="svg_9">
   <rect fill="#007f3f" height="333.969966" id="svg_1" stroke="#000000" width="579.010213" x="3.500007" y="113.843836"/>
   <text fill="#000000" font-family="Serif" font-size="24" id="svg_2" stroke="#000000" stroke-width="0" text-anchor="middle" transform="matrix(10.1502 0 0 9.20823 -1544.61 -949.242)" x="176.101526" xml:space="preserve" y="146.524177">SH</text>
   <polygon cx="275.5" cy="125.5" fill="#007f3f" id="svg_4" orient="point" point="5" points="398.1326640125553,14.812497955713297 430.5974659500498,121.95572449888459 529.4554096924549,124.26679709180462 450.6617991967141,192.79603759578094 479.2946534762086,301.36761882369683 398.1326640125553,236.57778220359432 316.97070530906785,301.36761882369683 345.60355958856235,192.79603759578094 266.80985681232414,124.26679709180462 365.667831314895,121.95572449888459 398.1326640125553,14.812497955713297 430.5974659500498,121.95572449888459 " r="42.687495" r2="17.074998" shape="star" stroke="#000000" strokeWidth="1" strokecolor="#000000"/>
   <polygon cx="289.5" cy="122.5" fill="#007f3f" id="svg_5" orient="point" point="5" points="443.41836458741454,95.51941524916401 457.06080573370855,140.54321418973814 498.6029326069911,141.51436842505973 465.49222870744416,170.31176619242615 477.5243136523204,215.9357874214311 443.41836458741454,188.70975058195654 409.3124155225087,215.9357874214311 421.34453122755076,170.31176619242615 388.2338273280038,141.51436842505973 429.77595420128637,140.54321418973814 443.41836458741454,95.51941524916401 457.06080573370855,140.54321418973814 " r="17.938165" r2="7.175266" shape="star" stroke="#000000" strokeWidth="1" strokecolor="#000000"/>
   <polygon cx="338.5" cy="207.5" fill="#007f3f" id="svg_6" orient="point" point="5" points="601.9184242600022,477.5 601.9184242600022,477.5 601.9184242600022,477.5 601.9184242600022,477.5 601.9184242600022,477.5 601.9184242600022,477.5 601.9184242600022,477.5 601.9184242600022,477.5 601.9184242600022,477.5 601.9184242600022,477.5 601.9184242600022,477.5 601.9184242600022,477.5 " r="0" r2="0" shape="star" stroke="#000000" strokeWidth="1" strokecolor="#000000"/>
   <polygon cx="349.5" cy="153.5" fill="#007f3f" id="svg_7" orient="point" point="5" points="637.5,277.1180207750149 637.5,277.1180207750149 637.5,277.1180207750149 637.5,277.1180207750149 637.5,277.1180207750149 637.5,277.1180207750149 637.5,277.1180207750149 637.5,277.1180207750149 637.5,277.1180207750149 637.5,277.1180207750149 637.5,277.1180207750149 637.5,277.1180207750149 " r="0" r2="0" shape="star" stroke="#000000" strokeWidth="1" strokecolor="#000000"/>
  </g>
 </g>
</svg>